<mxfile host="app.diagrams.net" modified="2023-05-02T08:02:12.795Z" agent="Mozilla/5.0 (Windows NT 10.0; Win64; x64) AppleWebKit/537.36 (KHTML, like Gecko) Chrome/112.0.0.0 Safari/537.36" etag="MiwdhMPf1ARTC6URUjUu" version="21.1.8" type="device">
  <diagram name="Page-1" id="-4WJBF-al_0WI5foOdRX">
    <mxGraphModel dx="2580" dy="1162" grid="1" gridSize="10" guides="1" tooltips="1" connect="1" arrows="1" fold="1" page="1" pageScale="1" pageWidth="850" pageHeight="1100" math="0" shadow="0">
      <root>
        <mxCell id="0" />
        <mxCell id="1" parent="0" />
        <mxCell id="ruvpKAMkT9LqvMziTTvw-38" style="edgeStyle=orthogonalEdgeStyle;rounded=0;orthogonalLoop=1;jettySize=auto;html=1;" edge="1" parent="1" source="TjkZmVoXFsRr9wRuoQSi-3">
          <mxGeometry relative="1" as="geometry">
            <mxPoint x="855" y="380" as="targetPoint" />
          </mxGeometry>
        </mxCell>
        <mxCell id="ruvpKAMkT9LqvMziTTvw-39" style="edgeStyle=orthogonalEdgeStyle;rounded=0;orthogonalLoop=1;jettySize=auto;html=1;" edge="1" parent="1" source="TjkZmVoXFsRr9wRuoQSi-3" target="ruvpKAMkT9LqvMziTTvw-37">
          <mxGeometry relative="1" as="geometry" />
        </mxCell>
        <mxCell id="TjkZmVoXFsRr9wRuoQSi-3" value="" style="html=1;overflow=block;blockSpacing=1;whiteSpace=wrap;shape=mxgraph.aws4.resourceIcon;resIcon=mxgraph.aws4.lambda;verticalLabelPosition=bottom;align=center;verticalAlign=top;strokeColor=#ffffff;pointerEvents=1;fontSize=16.7;fontColor=#3a414a;spacing=0;strokeOpacity=100;rounded=1;absoluteArcSize=1;arcSize=9;fillColor=#d86613;strokeWidth=0.8;lucidId=F~bU9HY-k30U;" parent="1" vertex="1">
          <mxGeometry x="810" y="125" width="90" height="90" as="geometry" />
        </mxCell>
        <mxCell id="TjkZmVoXFsRr9wRuoQSi-4" value="poc-hiring-s3" style="html=1;overflow=block;blockSpacing=1;whiteSpace=wrap;shape=mxgraph.aws3.bucket;labelPosition=center;verticalLabelPosition=bottom;align=center;verticalAlign=top;pointerEvents=1;fontSize=14;fontFamily=Roboto;fontColor=#687078;fontStyle=1;spacing=3.8;strokeColor=#3a414a;strokeOpacity=100;rounded=1;absoluteArcSize=1;arcSize=9;fillColor=#e05243;strokeWidth=0.8;lucidId=DacU9-nAVNdz;" parent="1" vertex="1">
          <mxGeometry x="560" y="120" width="80" height="95" as="geometry" />
        </mxCell>
        <mxCell id="ruvpKAMkT9LqvMziTTvw-15" style="edgeStyle=orthogonalEdgeStyle;rounded=0;orthogonalLoop=1;jettySize=auto;html=1;entryX=0.857;entryY=0.9;entryDx=0;entryDy=0;entryPerimeter=0;" edge="1" parent="1" source="TjkZmVoXFsRr9wRuoQSi-5" target="ruvpKAMkT9LqvMziTTvw-10">
          <mxGeometry relative="1" as="geometry" />
        </mxCell>
        <mxCell id="TjkZmVoXFsRr9wRuoQSi-5" value="" style="html=1;overflow=block;blockSpacing=1;whiteSpace=wrap;shape=image;fontSize=13;spacing=3.8;strokeColor=none;strokeOpacity=100;strokeWidth=0;image=https://images.lucid.app/images/e47739ad-0541-41c3-86bd-2ad0edf2d5d1/content;imageAspect=0;lucidId=RhcUHhgzhwvd;" parent="1" vertex="1">
          <mxGeometry x="40" y="108" width="96" height="96" as="geometry" />
        </mxCell>
        <mxCell id="TjkZmVoXFsRr9wRuoQSi-9" value="creates IAM user and SG groups" style="text;html=1;align=center;verticalAlign=middle;resizable=0;points=[];autosize=1;strokeColor=none;fillColor=none;" parent="1" vertex="1">
          <mxGeometry x="774" y="95" width="200" height="30" as="geometry" />
        </mxCell>
        <mxCell id="ruvpKAMkT9LqvMziTTvw-35" style="edgeStyle=orthogonalEdgeStyle;rounded=0;orthogonalLoop=1;jettySize=auto;html=1;" edge="1" parent="1" source="TjkZmVoXFsRr9wRuoQSi-16">
          <mxGeometry relative="1" as="geometry">
            <mxPoint x="110.99999999999977" y="659.9999999999998" as="targetPoint" />
          </mxGeometry>
        </mxCell>
        <mxCell id="TjkZmVoXFsRr9wRuoQSi-16" value="AWS Account" style="points=[[0,0],[0.25,0],[0.5,0],[0.75,0],[1,0],[1,0.25],[1,0.5],[1,0.75],[1,1],[0.75,1],[0.5,1],[0.25,1],[0,1],[0,0.75],[0,0.5],[0,0.25]];outlineConnect=0;gradientColor=none;html=1;whiteSpace=wrap;fontSize=12;fontStyle=0;container=1;pointerEvents=0;collapsible=0;recursiveResize=0;shape=mxgraph.aws4.group;grIcon=mxgraph.aws4.group_account;strokeColor=#CD2264;fillColor=none;verticalAlign=top;align=left;spacingLeft=30;fontColor=#CD2264;dashed=0;" parent="1" vertex="1">
          <mxGeometry x="46" y="410" width="130" height="130" as="geometry" />
        </mxCell>
        <mxCell id="TjkZmVoXFsRr9wRuoQSi-18" value="Singapore" style="points=[[0,0],[0.25,0],[0.5,0],[0.75,0],[1,0],[1,0.25],[1,0.5],[1,0.75],[1,1],[0.75,1],[0.5,1],[0.25,1],[0,1],[0,0.75],[0,0.5],[0,0.25]];outlineConnect=0;gradientColor=none;html=1;whiteSpace=wrap;fontSize=12;fontStyle=0;container=1;pointerEvents=0;collapsible=0;recursiveResize=0;shape=mxgraph.aws4.group;grIcon=mxgraph.aws4.group_region;strokeColor=#147EBA;fillColor=none;verticalAlign=top;align=left;spacingLeft=30;fontColor=#147EBA;dashed=1;" parent="TjkZmVoXFsRr9wRuoQSi-16" vertex="1">
          <mxGeometry x="15" y="61" width="100" height="30" as="geometry" />
        </mxCell>
        <mxCell id="ruvpKAMkT9LqvMziTTvw-44" style="edgeStyle=orthogonalEdgeStyle;rounded=0;orthogonalLoop=1;jettySize=auto;html=1;" edge="1" parent="1" source="TjkZmVoXFsRr9wRuoQSi-21">
          <mxGeometry relative="1" as="geometry">
            <mxPoint x="650" y="654.9999999999998" as="targetPoint" />
          </mxGeometry>
        </mxCell>
        <mxCell id="TjkZmVoXFsRr9wRuoQSi-21" value="hiring-iam-revoke" style="html=1;overflow=block;blockSpacing=1;whiteSpace=wrap;shape=mxgraph.aws4.resourceIcon;resIcon=mxgraph.aws4.lambda;verticalLabelPosition=bottom;align=center;verticalAlign=top;strokeColor=#ffffff;pointerEvents=1;fontSize=16.7;fontColor=#3a414a;spacing=0;strokeOpacity=100;rounded=1;absoluteArcSize=1;arcSize=9;fillColor=#d86613;strokeWidth=0.8;lucidId=F~bU9HY-k30U;" parent="1" vertex="1">
          <mxGeometry x="815" y="610" width="90" height="90" as="geometry" />
        </mxCell>
        <mxCell id="TjkZmVoXFsRr9wRuoQSi-22" value="" style="shape=image;html=1;verticalAlign=top;verticalLabelPosition=bottom;labelBackgroundColor=#ffffff;imageAspect=0;aspect=fixed;image=https://cdn1.iconfinder.com/data/icons/nuvola2/48x48/actions/button_cancel.png" parent="1" vertex="1">
          <mxGeometry x="706" y="590" width="48" height="48" as="geometry" />
        </mxCell>
        <mxCell id="TjkZmVoXFsRr9wRuoQSi-25" value="Revoke candidate credentials" style="text;html=1;align=center;verticalAlign=middle;resizable=0;points=[];autosize=1;strokeColor=none;fillColor=none;" parent="1" vertex="1">
          <mxGeometry x="640" y="670" width="180" height="30" as="geometry" />
        </mxCell>
        <mxCell id="ruvpKAMkT9LqvMziTTvw-16" style="edgeStyle=orthogonalEdgeStyle;rounded=0;orthogonalLoop=1;jettySize=auto;html=1;" edge="1" parent="1" source="ruvpKAMkT9LqvMziTTvw-2">
          <mxGeometry relative="1" as="geometry">
            <mxPoint x="140" y="172" as="targetPoint" />
          </mxGeometry>
        </mxCell>
        <mxCell id="ruvpKAMkT9LqvMziTTvw-2" value="" style="shape=image;html=1;verticalAlign=top;verticalLabelPosition=bottom;labelBackgroundColor=#ffffff;imageAspect=0;aspect=fixed;image=https://cdn0.iconfinder.com/data/icons/web-development-and-studio/512/65_Employee_hr_human_hunting_personal_resources_resume_search-128.png" vertex="1" parent="1">
          <mxGeometry x="290" y="108" width="128" height="128" as="geometry" />
        </mxCell>
        <mxCell id="ruvpKAMkT9LqvMziTTvw-3" value="&lt;b&gt;TA TEAM&lt;/b&gt;" style="text;html=1;align=center;verticalAlign=middle;resizable=0;points=[];autosize=1;strokeColor=none;fillColor=none;" vertex="1" parent="1">
          <mxGeometry x="310" y="230" width="80" height="30" as="geometry" />
        </mxCell>
        <mxCell id="ruvpKAMkT9LqvMziTTvw-28" style="edgeStyle=orthogonalEdgeStyle;rounded=0;orthogonalLoop=1;jettySize=auto;html=1;" edge="1" parent="1" source="ruvpKAMkT9LqvMziTTvw-4">
          <mxGeometry relative="1" as="geometry">
            <mxPoint x="88" y="400" as="targetPoint" />
          </mxGeometry>
        </mxCell>
        <mxCell id="ruvpKAMkT9LqvMziTTvw-4" value="&lt;b&gt;Candidate&lt;/b&gt;" style="text;html=1;align=center;verticalAlign=middle;resizable=0;points=[];autosize=1;strokeColor=none;fillColor=none;" vertex="1" parent="1">
          <mxGeometry x="48" y="218" width="80" height="30" as="geometry" />
        </mxCell>
        <mxCell id="ruvpKAMkT9LqvMziTTvw-10" value="&lt;span style=&quot;color: rgb(58, 65, 74); font-family: Helvetica; font-style: normal; font-variant-ligatures: normal; font-variant-caps: normal; letter-spacing: normal; orphans: 2; text-align: center; text-indent: 0px; text-transform: none; widows: 2; word-spacing: 0px; -webkit-text-stroke-width: 0px; background-color: rgb(251, 251, 251); text-decoration-thickness: initial; text-decoration-style: initial; text-decoration-color: initial; float: none; display: inline !important;&quot;&gt;&lt;b style=&quot;&quot;&gt;&lt;font style=&quot;font-size: 12px;&quot;&gt;Candidate details&lt;/font&gt;&lt;/b&gt;&lt;/span&gt;" style="text;whiteSpace=wrap;html=1;" vertex="1" parent="1">
          <mxGeometry x="170" y="120" width="140" height="40" as="geometry" />
        </mxCell>
        <mxCell id="ruvpKAMkT9LqvMziTTvw-11" style="edgeStyle=orthogonalEdgeStyle;rounded=0;orthogonalLoop=1;jettySize=auto;html=1;exitX=0.5;exitY=1;exitDx=0;exitDy=0;" edge="1" parent="1">
          <mxGeometry relative="1" as="geometry">
            <mxPoint x="155" y="149" as="sourcePoint" />
            <mxPoint x="155" y="149" as="targetPoint" />
          </mxGeometry>
        </mxCell>
        <mxCell id="ruvpKAMkT9LqvMziTTvw-13" value="&lt;b&gt;AWS credentials&lt;/b&gt;" style="text;html=1;align=center;verticalAlign=middle;resizable=0;points=[];autosize=1;strokeColor=none;fillColor=none;" vertex="1" parent="1">
          <mxGeometry x="156" y="174" width="120" height="30" as="geometry" />
        </mxCell>
        <mxCell id="ruvpKAMkT9LqvMziTTvw-17" style="edgeStyle=orthogonalEdgeStyle;rounded=0;orthogonalLoop=1;jettySize=auto;html=1;entryX=0.857;entryY=0.9;entryDx=0;entryDy=0;entryPerimeter=0;" edge="1" parent="1" target="ruvpKAMkT9LqvMziTTvw-18">
          <mxGeometry relative="1" as="geometry">
            <mxPoint x="400" y="170" as="sourcePoint" />
          </mxGeometry>
        </mxCell>
        <mxCell id="ruvpKAMkT9LqvMziTTvw-18" value="&lt;span style=&quot;color: rgb(58, 65, 74); font-family: Helvetica; font-style: normal; font-variant-ligatures: normal; font-variant-caps: normal; letter-spacing: normal; orphans: 2; text-align: center; text-indent: 0px; text-transform: none; widows: 2; word-spacing: 0px; -webkit-text-stroke-width: 0px; background-color: rgb(251, 251, 251); text-decoration-thickness: initial; text-decoration-style: initial; text-decoration-color: initial; float: none; display: inline !important;&quot;&gt;&lt;b style=&quot;&quot;&gt;&lt;font style=&quot;font-size: 12px;&quot;&gt;Candidate details&lt;/font&gt;&lt;/b&gt;&lt;/span&gt;" style="text;whiteSpace=wrap;html=1;" vertex="1" parent="1">
          <mxGeometry x="440" y="134" width="140" height="40" as="geometry" />
        </mxCell>
        <mxCell id="ruvpKAMkT9LqvMziTTvw-19" style="edgeStyle=orthogonalEdgeStyle;rounded=0;orthogonalLoop=1;jettySize=auto;html=1;" edge="1" parent="1">
          <mxGeometry relative="1" as="geometry">
            <mxPoint x="400" y="183" as="targetPoint" />
            <mxPoint x="550" y="183" as="sourcePoint" />
          </mxGeometry>
        </mxCell>
        <mxCell id="ruvpKAMkT9LqvMziTTvw-20" value="&lt;b&gt;AWS credentials&lt;/b&gt;" style="text;html=1;align=center;verticalAlign=middle;resizable=0;points=[];autosize=1;strokeColor=none;fillColor=none;" vertex="1" parent="1">
          <mxGeometry x="416" y="185" width="120" height="30" as="geometry" />
        </mxCell>
        <mxCell id="ruvpKAMkT9LqvMziTTvw-23" style="edgeStyle=orthogonalEdgeStyle;rounded=0;orthogonalLoop=1;jettySize=auto;html=1;" edge="1" parent="1">
          <mxGeometry relative="1" as="geometry">
            <mxPoint x="650" y="183" as="targetPoint" />
            <mxPoint x="800" y="183" as="sourcePoint" />
          </mxGeometry>
        </mxCell>
        <mxCell id="ruvpKAMkT9LqvMziTTvw-24" value="&lt;b&gt;AWS credentials&lt;/b&gt;" style="text;html=1;align=center;verticalAlign=middle;resizable=0;points=[];autosize=1;strokeColor=none;fillColor=none;" vertex="1" parent="1">
          <mxGeometry x="666" y="185" width="120" height="30" as="geometry" />
        </mxCell>
        <mxCell id="ruvpKAMkT9LqvMziTTvw-25" style="edgeStyle=orthogonalEdgeStyle;rounded=0;orthogonalLoop=1;jettySize=auto;html=1;entryX=0.857;entryY=0.9;entryDx=0;entryDy=0;entryPerimeter=0;" edge="1" parent="1" target="ruvpKAMkT9LqvMziTTvw-26">
          <mxGeometry relative="1" as="geometry">
            <mxPoint x="640" y="170" as="sourcePoint" />
          </mxGeometry>
        </mxCell>
        <mxCell id="ruvpKAMkT9LqvMziTTvw-26" value="&lt;span style=&quot;color: rgb(58, 65, 74); font-family: Helvetica; font-style: normal; font-variant-ligatures: normal; font-variant-caps: normal; letter-spacing: normal; orphans: 2; text-align: center; text-indent: 0px; text-transform: none; widows: 2; word-spacing: 0px; -webkit-text-stroke-width: 0px; background-color: rgb(251, 251, 251); text-decoration-thickness: initial; text-decoration-style: initial; text-decoration-color: initial; float: none; display: inline !important;&quot;&gt;&lt;b style=&quot;&quot;&gt;&lt;font style=&quot;font-size: 12px;&quot;&gt;Candidate details&lt;/font&gt;&lt;/b&gt;&lt;/span&gt;" style="text;whiteSpace=wrap;html=1;" vertex="1" parent="1">
          <mxGeometry x="680" y="134" width="140" height="40" as="geometry" />
        </mxCell>
        <mxCell id="ruvpKAMkT9LqvMziTTvw-27" value="&lt;b&gt;AWS credentials&lt;/b&gt;" style="text;html=1;align=center;verticalAlign=middle;resizable=0;points=[];autosize=1;strokeColor=none;fillColor=none;" vertex="1" parent="1">
          <mxGeometry x="90" y="330" width="120" height="30" as="geometry" />
        </mxCell>
        <mxCell id="ruvpKAMkT9LqvMziTTvw-29" value="" style="sketch=0;points=[[0,0,0],[0.25,0,0],[0.5,0,0],[0.75,0,0],[1,0,0],[0,1,0],[0.25,1,0],[0.5,1,0],[0.75,1,0],[1,1,0],[0,0.25,0],[0,0.5,0],[0,0.75,0],[1,0.25,0],[1,0.5,0],[1,0.75,0]];outlineConnect=0;fontColor=#232F3E;gradientColor=#4AB29A;gradientDirection=north;fillColor=#116D5B;strokeColor=#ffffff;dashed=0;verticalLabelPosition=bottom;verticalAlign=top;align=center;html=1;fontSize=12;fontStyle=0;aspect=fixed;shape=mxgraph.aws4.resourceIcon;resIcon=mxgraph.aws4.sagemaker_studio_lab;" vertex="1" parent="1">
          <mxGeometry x="78" y="670" width="78" height="78" as="geometry" />
        </mxCell>
        <mxCell id="ruvpKAMkT9LqvMziTTvw-33" value="performs the lab assignment" style="text;html=1;align=center;verticalAlign=middle;resizable=0;points=[];autosize=1;strokeColor=none;fillColor=none;" vertex="1" parent="1">
          <mxGeometry x="46" y="748" width="170" height="30" as="geometry" />
        </mxCell>
        <mxCell id="ruvpKAMkT9LqvMziTTvw-34" value="Login to AWS account" style="text;html=1;align=center;verticalAlign=middle;resizable=0;points=[];autosize=1;strokeColor=none;fillColor=none;" vertex="1" parent="1">
          <mxGeometry x="180" y="470" width="140" height="30" as="geometry" />
        </mxCell>
        <mxCell id="ruvpKAMkT9LqvMziTTvw-45" style="edgeStyle=orthogonalEdgeStyle;rounded=0;orthogonalLoop=1;jettySize=auto;html=1;" edge="1" parent="1" source="ruvpKAMkT9LqvMziTTvw-36">
          <mxGeometry relative="1" as="geometry">
            <mxPoint x="860" y="599.9999999999998" as="targetPoint" />
          </mxGeometry>
        </mxCell>
        <mxCell id="ruvpKAMkT9LqvMziTTvw-36" value="Amazon CloudWatch" style="sketch=0;outlineConnect=0;fontColor=#232F3E;gradientColor=none;strokeColor=#ffffff;fillColor=#232F3E;dashed=0;verticalLabelPosition=middle;verticalAlign=bottom;align=center;html=1;whiteSpace=wrap;fontSize=10;fontStyle=1;spacing=3;shape=mxgraph.aws4.productIcon;prIcon=mxgraph.aws4.cloudwatch;" vertex="1" parent="1">
          <mxGeometry x="820" y="380" width="80" height="110" as="geometry" />
        </mxCell>
        <mxCell id="ruvpKAMkT9LqvMziTTvw-50" style="edgeStyle=orthogonalEdgeStyle;rounded=0;orthogonalLoop=1;jettySize=auto;html=1;" edge="1" parent="1" source="ruvpKAMkT9LqvMziTTvw-37">
          <mxGeometry relative="1" as="geometry">
            <mxPoint x="1159.9999999999995" y="609.9999999999998" as="targetPoint" />
          </mxGeometry>
        </mxCell>
        <mxCell id="ruvpKAMkT9LqvMziTTvw-37" value="Amazon CloudWatch" style="sketch=0;outlineConnect=0;fontColor=#232F3E;gradientColor=none;strokeColor=#ffffff;fillColor=#232F3E;dashed=0;verticalLabelPosition=middle;verticalAlign=bottom;align=center;html=1;whiteSpace=wrap;fontSize=10;fontStyle=1;spacing=3;shape=mxgraph.aws4.productIcon;prIcon=mxgraph.aws4.cloudwatch;" vertex="1" parent="1">
          <mxGeometry x="1120" y="380" width="80" height="110" as="geometry" />
        </mxCell>
        <mxCell id="ruvpKAMkT9LqvMziTTvw-40" value="EVENT 2 creation" style="text;html=1;align=center;verticalAlign=middle;resizable=0;points=[];autosize=1;strokeColor=none;fillColor=none;" vertex="1" parent="1">
          <mxGeometry x="1160" y="290" width="120" height="30" as="geometry" />
        </mxCell>
        <mxCell id="ruvpKAMkT9LqvMziTTvw-41" value="EVENT 1 creation" style="text;html=1;align=center;verticalAlign=middle;resizable=0;points=[];autosize=1;strokeColor=none;fillColor=none;" vertex="1" parent="1">
          <mxGeometry x="854" y="320" width="120" height="30" as="geometry" />
        </mxCell>
        <mxCell id="ruvpKAMkT9LqvMziTTvw-42" value="" style="html=1;overflow=block;blockSpacing=1;whiteSpace=wrap;shape=image;fontSize=13;spacing=3.8;strokeColor=none;strokeOpacity=100;strokeWidth=0;image=https://images.lucid.app/images/e47739ad-0541-41c3-86bd-2ad0edf2d5d1/content;imageAspect=0;lucidId=RhcUHhgzhwvd;" vertex="1" parent="1">
          <mxGeometry x="552" y="620" width="96" height="96" as="geometry" />
        </mxCell>
        <mxCell id="ruvpKAMkT9LqvMziTTvw-46" value="" style="html=1;verticalLabelPosition=bottom;align=center;labelBackgroundColor=#ffffff;verticalAlign=top;strokeWidth=2;strokeColor=#0080F0;shadow=0;dashed=0;shape=mxgraph.ios7.icons.alarm_clock;" vertex="1" parent="1">
          <mxGeometry x="1181" y="530" width="27" height="30" as="geometry" />
        </mxCell>
        <mxCell id="ruvpKAMkT9LqvMziTTvw-48" value="" style="html=1;verticalLabelPosition=bottom;align=center;labelBackgroundColor=#ffffff;verticalAlign=top;strokeWidth=2;strokeColor=#0080F0;shadow=0;dashed=0;shape=mxgraph.ios7.icons.alarm_clock;" vertex="1" parent="1">
          <mxGeometry x="873" y="520" width="27" height="30" as="geometry" />
        </mxCell>
        <mxCell id="ruvpKAMkT9LqvMziTTvw-62" style="edgeStyle=orthogonalEdgeStyle;rounded=0;orthogonalLoop=1;jettySize=auto;html=1;entryX=0.5;entryY=0;entryDx=0;entryDy=0;" edge="1" parent="1" source="ruvpKAMkT9LqvMziTTvw-56" target="ruvpKAMkT9LqvMziTTvw-61">
          <mxGeometry relative="1" as="geometry" />
        </mxCell>
        <mxCell id="ruvpKAMkT9LqvMziTTvw-56" value="" style="sketch=0;points=[[0,0,0],[0.25,0,0],[0.5,0,0],[0.75,0,0],[1,0,0],[0,1,0],[0.25,1,0],[0.5,1,0],[0.75,1,0],[1,1,0],[0,0.25,0],[0,0.5,0],[0,0.75,0],[1,0.25,0],[1,0.5,0],[1,0.75,0]];outlineConnect=0;fontColor=#232F3E;gradientColor=#F78E04;gradientDirection=north;fillColor=#D05C17;strokeColor=#ffffff;dashed=0;verticalLabelPosition=bottom;verticalAlign=top;align=center;html=1;fontSize=12;fontStyle=0;aspect=fixed;shape=mxgraph.aws4.resourceIcon;resIcon=mxgraph.aws4.lambda;" vertex="1" parent="1">
          <mxGeometry x="1120" y="612" width="88" height="88" as="geometry" />
        </mxCell>
        <mxCell id="ruvpKAMkT9LqvMziTTvw-57" value="&lt;font style=&quot;font-size: 14px;&quot;&gt;&lt;b&gt;Resource termination&amp;nbsp;&lt;/b&gt;&lt;/font&gt;" style="text;html=1;align=center;verticalAlign=middle;resizable=0;points=[];autosize=1;strokeColor=none;fillColor=none;" vertex="1" parent="1">
          <mxGeometry x="1220" y="650" width="170" height="30" as="geometry" />
        </mxCell>
        <mxCell id="ruvpKAMkT9LqvMziTTvw-58" value="&lt;font style=&quot;font-size: 14px;&quot;&gt;&lt;b&gt;POC_hiring&lt;/b&gt;&lt;/font&gt;" style="text;html=1;align=center;verticalAlign=middle;resizable=0;points=[];autosize=1;strokeColor=none;fillColor=none;" vertex="1" parent="1">
          <mxGeometry x="900" y="185" width="100" height="30" as="geometry" />
        </mxCell>
        <mxCell id="ruvpKAMkT9LqvMziTTvw-59" value="time- 3hours" style="text;html=1;align=center;verticalAlign=middle;resizable=0;points=[];autosize=1;strokeColor=none;fillColor=none;" vertex="1" parent="1">
          <mxGeometry x="854" y="550" width="90" height="30" as="geometry" />
        </mxCell>
        <mxCell id="ruvpKAMkT9LqvMziTTvw-60" value="time 7 days" style="text;html=1;align=center;verticalAlign=middle;resizable=0;points=[];autosize=1;strokeColor=none;fillColor=none;" vertex="1" parent="1">
          <mxGeometry x="1170" y="560" width="80" height="30" as="geometry" />
        </mxCell>
        <mxCell id="ruvpKAMkT9LqvMziTTvw-61" value="" style="shape=image;html=1;verticalAlign=top;verticalLabelPosition=bottom;labelBackgroundColor=#ffffff;imageAspect=0;aspect=fixed;image=https://cdn4.iconfinder.com/data/icons/evil-icons-user-interface/64/basket-128.png" vertex="1" parent="1">
          <mxGeometry x="1101" y="830" width="128" height="128" as="geometry" />
        </mxCell>
        <mxCell id="ruvpKAMkT9LqvMziTTvw-63" value="ALL resources created by user are deleted" style="text;html=1;align=center;verticalAlign=middle;resizable=0;points=[];autosize=1;strokeColor=none;fillColor=none;" vertex="1" parent="1">
          <mxGeometry x="1050" y="958" width="250" height="30" as="geometry" />
        </mxCell>
      </root>
    </mxGraphModel>
  </diagram>
</mxfile>
